<svg aria-hidden="true" style="position: absolute; width: 0; height: 0; overflow: hidden;" version="1.1" xmlns="http://www.w3.org/2000/svg" xmlns:xlink="http://www.w3.org/1999/xlink">
<defs>
<symbol id="icon-arrow" viewBox="0 0 32 32">
<path d="M27.766 17.957c-0.174-1.303-0.286-2.466-0.337-3.49-0.022-1.040 0.017-1.94 0.119-2.7l-25.293 14.603-1.197-2.073 25.293-14.603c-0.728-0.325-1.537-0.758-2.426-1.297-0.861-0.556-1.803-1.218-2.825-1.988l1.519-0.877c3.209 1.349 6.143 2.024 8.804 2.023l0.513 0.888c-1.35 2.271-2.233 5.149-2.65 8.636l-1.519 0.877z"></path>
</symbol>
<symbol id="icon-modal" viewBox="0 0 36 24">
<path stroke-linejoin="miter" stroke-linecap="round" stroke-miterlimit="4" stroke-width="1.7778" d="M5.759 8.97h25.353"></path>
<path stroke-linejoin="miter" stroke-linecap="round" stroke-miterlimit="4" stroke-width="1.7778" d="M5.759 21.899h25.353"></path>
<path stroke-linejoin="miter" stroke-linecap="round" stroke-miterlimit="4" stroke-width="1.7778" d="M13.411 15.434h17.701"></path>
</symbol>
<symbol id="icon-close" viewBox="0 0 32 32">
<path stroke-linejoin="round" stroke-linecap="round" stroke-miterlimit="4" stroke-width="1.7778" d="M24 8l-16 16"></path>
<path stroke-linejoin="round" stroke-linecap="round" stroke-miterlimit="4" stroke-width="1.7778" d="M8 8l16 16"></path>
</symbol>
<symbol id="icon-instagram" viewBox="0 0 24 24">
  <path d="M23.1279 7.41145C23.1142 6.47139 22.9401 5.53879 22.6067 4.65957C22.0233 3.15821 20.8354 1.97103 19.3315 1.38985C18.4621 1.06325 17.5428 0.888157 16.6124 0.868288C15.4158 0.81489 15.0364 0.799988 11.9988 0.799988C8.96122 0.799988 8.57188 0.799988 7.38397 0.868288C6.45478 0.888157 5.53554 1.06325 4.66606 1.38985C3.1622 1.97103 1.97304 3.15821 1.3909 4.65957C1.06375 5.52761 0.887121 6.44532 0.869707 7.37296C0.816219 8.56883 0.800049 8.94759 0.800049 11.9801C0.800049 15.0127 0.800049 15.4001 0.869707 16.5873C0.888365 17.5162 1.06375 18.4326 1.3909 19.3032C1.97428 20.8033 3.1622 21.9905 4.66731 22.5716C5.53306 22.9094 6.45229 23.1006 7.38521 23.1304C8.58308 23.1838 8.96247 23.2 12.0001 23.2C15.0376 23.2 15.427 23.2 16.6149 23.1304C17.5441 23.1118 18.4633 22.9367 19.334 22.6101C20.8379 22.0277 22.0258 20.8405 22.6092 19.3404C22.9363 18.4711 23.1117 17.5547 23.1304 16.6245C23.1839 15.4299 23.2001 15.0511 23.2001 12.0174C23.1976 8.98484 23.1976 8.59988 23.1279 7.41145ZM11.9913 17.7149C8.81444 17.7149 6.24083 15.1455 6.24083 11.9739C6.24083 8.8023 8.81444 6.23296 11.9913 6.23296C15.1658 6.23296 17.7419 8.8023 17.7419 11.9739C17.7419 15.1455 15.1658 17.7149 11.9913 17.7149ZM17.9707 7.3593C17.2281 7.3593 16.6298 6.76074 16.6298 6.02061C16.6298 5.28049 17.2281 4.68193 17.9707 4.68193C18.7108 4.68193 19.3104 5.28049 19.3104 6.02061C19.3104 6.76074 18.7108 7.3593 17.9707 7.3593Z" fill="#FCF9F9"></path>
</symbol>
<symbol id="icon-facebook" viewBox="0 0 28 28">
<path d="M17.0799 4.06011C17.2899 4.06011 17.4999 4.06011 17.9199 4.06011V7.21011C17.7099 7.21011 17.2899 7.21011 16.8699 7.21011C16.4499 7.21011 16.0299 7.21011 15.8199 7.42011C15.6099 7.63011 15.6099 7.84011 15.6099 8.33011C15.6099 8.75011 15.6099 9.03011 15.6099 9.45011H17.9199V12.1101H15.6099V23.6601H12.0399V12.0401H10.1499V9.38011H12.0399V8.47011C12.0399 6.93011 12.2499 5.81011 12.6699 5.32011C13.2999 4.41011 14.5599 3.99011 16.4499 3.99011C16.6599 4.06011 16.8699 4.06011 17.0799 4.06011Z" fill="#FCF9F9"></path>
</symbol>
<symbol id="icon-youtube" viewBox="0 0 26 18">
<path fill-rule="evenodd" clip-rule="evenodd" d="M20.2101 0.249863C19.0201 0.179863 16.5701 0.109863 12.8601 0.109863H12.3701C8.8001 0.109863 6.42013 0.179863 5.23013 0.319863C3.62013 0.459863 2.5001 0.879863 1.8701 1.43986C1.3101 1.92986 0.890116 2.83986 0.750116 4.02986C0.680116 4.79986 0.610107 6.40986 0.610107 8.85986V9.20986C0.610107 11.5199 0.680099 13.1299 0.820099 13.8999C1.0301 15.0199 1.38013 15.8599 2.08013 16.3499C2.78013 16.9099 3.97012 17.2599 5.65012 17.3999C6.84012 17.4699 9.29011 17.5399 13.0001 17.5399H13.4901C17.0601 17.5399 19.4401 17.4699 20.6301 17.3299C22.2401 17.1899 23.3601 16.7699 23.9901 16.2099C24.5501 15.7199 24.9701 14.8099 25.1101 13.6199C25.1801 12.8499 25.2501 11.2399 25.2501 8.78986V8.43986C25.2501 6.12986 25.1801 4.51986 25.0401 3.74986C24.8301 2.62986 24.4801 1.78986 23.7801 1.29986C23.0801 0.739863 21.8901 0.389863 20.2101 0.249863ZM17.4801 8.85986L9.78013 13.4799V4.23986L17.4801 8.85986Z" fill="#FCF9F9"></path>
</symbol>
</defs>
</svg>
